<svg xmlns="http://www.w3.org/2000/svg" width="32" height="30" fill="none"><path fill="#fff" d="m19 14.848.495.868a1 1 0 0 0 0-1.736l-.496.868Zm-5.25 3h-1a1 1 0 0 0 1.496.868l-.497-.868Zm0-6 .496-.868a1 1 0 0 0-1.497.868h1ZM2.357 5.874l-.717-.697.717.697Zm7.773-1.578-.028-1 .028 1Zm11.737 0 .028-1-.028 1ZM29.64 23.82l-.717-.698.717.698Zm-7.773 1.578.028 1-.028-1Zm-11.737 0-.028 1 .028-1ZM2.358 23.82l.717-.698-.717.698ZM19 14.848l-.496-.869-5.25 3 .496.869.497.868 5.25-3-.497-.868Zm-5.25 3h1v-6h-2v6h1Zm0-6-.496.868 5.25 3 .496-.868.497-.869-5.25-3-.497.869ZM1 15.908h1v-2.122H0v2.122h1Zm0-2.122h1c0-2.2.002-3.75.16-4.927.155-1.148.443-1.802.915-2.288l-.717-.697-.717-.697C.755 6.088.364 7.218.18 8.592-.002 9.934 0 11.642 0 13.786h1Zm1.358-7.912.717.697c.475-.488 1.115-.792 2.238-.978 1.157-.191 2.68-.236 4.846-.298l-.028-1-.028-.999c-2.11.06-3.794.105-5.116.324-1.354.224-2.462.648-3.346 1.557l.717.697Zm7.773-1.578.028 1c2.023-.058 4.082-.099 5.84-.099v-2c-1.785 0-3.865.042-5.896.1l.028.999ZM16 4.197v1c1.759 0 3.818.041 5.84.098l.029-1 .028-.999c-2.03-.057-4.111-.099-5.897-.099v1Zm5.869.099-.029 1c2.167.06 3.69.106 4.846.297 1.124.186 1.764.49 2.239.978l.717-.697.717-.697c-.884-.909-1.992-1.333-3.346-1.557-1.322-.219-3.006-.264-5.116-.324l-.028 1Zm7.773 1.578-.717.697c.472.486.76 1.14.914 2.288.159 1.178.16 2.727.16 4.927h2c0-2.144.003-3.852-.178-5.194-.185-1.374-.576-2.504-1.462-3.415l-.717.697Zm1.358 7.912h-1v2.122h2v-2.122h-1Zm0 2.122h-1c0 2.2-.002 3.749-.161 4.927-.155 1.147-.442 1.802-.914 2.287l.717.698.717.697c.886-.912 1.277-2.042 1.462-3.415.181-1.343.179-3.05.179-5.194h-1ZM29.64 23.82l-.717-.698c-.475.489-1.115.793-2.239.979-1.156.191-2.679.236-4.845.298l.028 1 .028.999c2.11-.06 3.794-.105 5.116-.324 1.354-.224 2.462-.649 3.346-1.557l-.717-.697Zm-7.773 1.578-.028-1c-2.023.058-4.082.099-5.84.099v2c1.785 0 3.865-.042 5.896-.1l-.028-.999Zm-5.869.099v-1c-1.758 0-3.817-.041-5.84-.098l-.028 1-.028.999c2.03.057 4.111.099 5.896.099v-1Zm-5.868-.099.028-1c-2.166-.06-3.69-.106-4.846-.297-1.123-.186-1.763-.49-2.238-.979l-.717.698-.717.697c.884.909 1.992 1.333 3.346 1.557 1.322.219 3.006.264 5.116.324l.028-1ZM2.358 23.82l.717-.698c-.472-.485-.76-1.14-.914-2.287C2.002 19.657 2 18.108 2 15.908H0c0 2.144-.002 3.851.179 5.194.185 1.373.576 2.503 1.462 3.415l.717-.697Z"/></svg>