<svg xmlns="http://www.w3.org/2000/svg" width="165" height="45" fill="none"><path fill="#fff" d="M116.515 18.644a4.309 4.309 0 0 1-.383 1.226c-.281.6-.284 1.167-.005 1.764.146.311.275.64.294.994-.148.372 0 .75 0 1.125-.012 6.215-.009 12.431-.009 18.647 0 1.081.004.904.875 1.002.619.07 1.265-.064 1.861.204l.055.079c-1.536.093-3.073.015-4.61.043-.203.003-.304-.1-.369-.266l-.996-2.59c-.104-.218-.096-.45-.096-.682 0-13.127 0-26.254.002-39.381 0-.28-.025-.571.196-.8h2.886c.195.197.195.452.195.7.003 5.763.001 11.524.005 17.287 0 .217-.151.466.101.648h-.002Z"/><path fill="#fff" d="M113.328.01c0 11.85.005 23.698-.007 35.547-.002 1.773.106 3.547-.096 5.316-.392-.766-.664-1.581-.982-2.377-.622-1.566-1.236-3.135-1.854-4.703.098-.053.287.01.257-.211-.014-.115-.003-.231-.003-.348V6.158c0-.26-.005-.52.023-.784-.093.022-.136.105-.215.128-.354-.078-.186-.338-.15-.509.153-.727.394-1.433.609-2.142.231-.759.391-1.536.645-2.286.074-.222.147-.441.378-.556h1.393l.002.001ZM126.16 7.064c.475-1.809 1.104-3.57 1.645-5.357.173-.569.367-1.131.553-1.697h.299c.245.26.196.587.196.897.003 3.333.001 6.668.001 10.002v19.555c0 .48-.013.96.093 1.433-.822 2.175-1.62 4.359-2.568 6.484-.291-.017-.314-.258-.364-.46-.061-.242-.043-.495-.043-.743V8.637c0-.533.063-1.055.191-1.571l-.003-.002ZM102.571 41.96c-.149.483-.32.957-.564 1.402-.206.263-.915.424-1.305.268-.375-.152-.309-.516-.31-.818-.009-4.796-.005-9.59-.005-14.386.001-9.14-.002-18.28.003-27.42 0-.34-.073-.705.194-.996h1.791c.153.151.186.346.193.549.008.216.005.431.005.647 0 13.14 0 26.281.007 39.42 0 .446-.131.89-.012 1.335h.003ZM79.682 35.082l-4.673.03c-.021-.274.21-.28.367-.3.345-.044.437-.242.427-.548-.007-.215 0-.431 0-.648 0-10.87 0-21.739.003-32.61 0-.34-.073-.705.194-.996h2.29c.254.276.192.622.192.947.004 6.332.004 12.663.004 18.995 0 .15.006.298 0 .447-.007.153.056.252.194.308.212.311.038.61-.048.9-.465 1.556-.938 3.11-1.393 4.669-.161.552-.156.559.408.559 2.069.001 4.139-.002 6.207.003.276 0 .57-.05.807.16.038.115-.038.168-.12.218-.622.161-1.251.083-1.879.058-.788.052-1.577.055-2.364 0-.411.053-.826.022-1.24.032-.528.015-.57.043-.573.569-.01 1.69-.003 3.381-.003 5.072 0 .448.01.896 0 1.343-.008.358.131.503.495.511.254.007.583-.091.707.28l-.002.001Z"/><path fill="#fff" d="M102.571 41.96c-.282-.16-.188-.437-.188-.672-.003-9.377-.003-18.755-.003-28.133V.01h1.99c.274.318.412.66.201 1.07-.118.09-.135.21-.135.351.067 11.534.012 23.069.039 34.603 0 .28-.195.594.096.846a57.75 57.75 0 0 1-1.493 3.786c-.169.206-.187.474-.292.707l.005-.007c-.109.157-.136.346-.202.52a.069.069 0 0 1-.015.075h-.003ZM128.946 31.898c-.304-.115-.216-.415-.279-.634-.043-.153-.011-.33-.011-.496V.008h3.285c.206.214.183.485.184.748.005 1.336.004 2.671 0 4.007 0 .268.002.53.219.73-.836 1.26-1.603 2.554-2.027 4.023-.864 3-.994 6.006-.024 9.007.429 1.331 1.177 2.483 2.169 3.466.199.197.271.36.156.646-1.112 2.786-2.208 5.578-3.308 8.367-.151.172-.143.41-.256.598-.036.1-.073.198-.108.298ZM76 .01v34.067c0 .809 0 .806-.787.919-.073.01-.136.076-.206.116-.265.822-.53 1.645-.798 2.467-.3.003-.332-.228-.372-.44-.045-.23-.025-.464-.025-.695V5.31c0-.413.012-.825.09-1.233.279-1.117.743-2.172 1.092-3.265.085-.263.218-.514.207-.802h.8ZM100.586.01v19.71c0 7.658-.002 15.316.007 22.973 0 .277-.178.711.143.81.396.12.879.19 1.271-.139-.021.112-.016.235-.148.291-.69.107-1.384.039-2.078.037-.279-.065-.563-.04-.843-.032-.336.009-.483-.156-.52-.467-.023-.198-.02-.398-.02-.598l-.001-15.09c0-.756.197-1.472.396-2.19a36.23 36.23 0 0 1 1.096-3.284c.237-.366.254-.805.395-1.203l-.003.005c-.032-.461-.201-.88-.389-1.293a.076.076 0 0 1-.01-.075c-.377-.989-.5-2.01-.496-3.069.02-5.146.008-10.293.011-15.439 0-.326-.06-.672.195-.948h.996l-.002.001ZM86.453.01c.234.726.557 1.42.71 2.172-.033 10.756-.003 21.511-.021 32.267 0 .486.1.999-.198 1.45l-.296-.79c-.227-.157-.484-.08-.72-.064-.397.025-.541-.162-.56-.518a8.057 8.057 0 0 1-.01-.447V.907c0-.31-.05-.639.197-.898h.896l.002.001ZM116.515 18.644c-.194.088-.283.002-.296-.188-.01-.148-.005-.298-.005-.447v-18h2.887c.181.181.193.414.193.647-.007 3.21.028 6.42-.014 9.63-.003.202-.038.394-.069.59-.613 1.809-1.222 3.62-1.838 5.427-.143.42-.312.832-.468 1.246a3.885 3.885 0 0 0-.291.787l-.097.308h-.002Z"/><path fill="#fff" d="M85.556.01v34.115c0 .539.262.825.787.86.118.01.234.008.305.125-.431-.009-.861-.02-1.293-.028-.045-.018-.086-.041-.14-.044-.846-.049-.85-.049-.851-.92-.003-2.05-.003-4.101 0-6.152 0-.293-.043-.602.194-.843l.105-.069c-.28-.36-.36-.778-.347-1.223.13-.373.045-.754.045-1.131L84.362.857c0-.295-.038-.604.196-.847h.998ZM81.675.01h1.79c.195.197.195.45.195.7.002 6.756.007 13.513-.005 20.27 0 .444-.048.89-.093 1.334-.06.128-.141.181-.259.063a.754.754 0 0 1-.18-.348c-.398-1.466-.854-2.914-1.25-4.38a2.792 2.792 0 0 1-.089-.587c-.365-1.348-.307-2.728-.307-4.103 0-4.017 0-8.034.002-12.052 0-.31-.05-.639.194-.898l.002.001ZM78.678 20.737c-.16.055-.153.247-.387.428V.01h1.791c.244.26.195.587.195.897.003 4.323 0 8.649.003 12.972 0 .414-.015.829.124 1.228.067.321-.028.626-.123.92-.348 1.082-.564 2.206-1.027 3.249a1.328 1.328 0 0 0-.254.694c-.096.26-.073.57-.32.765l-.002.002Z"/><path fill="#fff" d="M83.46 22.443c-.142-.558.007-1.113.007-1.67-.003-6.92-.001-13.841-.001-20.763h1.095v24.485c0 .48.013.96-.103 1.431-.244-.008-.279-.213-.327-.378-.244-.845-.491-1.689-.715-2.54-.05-.187-.12-.389.044-.565ZM80.291 15.28c-.199-.503-.214-1.026-.214-1.56.007-4.57.004-9.141.004-13.711h1.592c0 4.575.004 9.15-.004 13.723-.001 1.158-.021 2.313.29 3.441-.25-.031-.298-.241-.35-.426-.242-.89-.534-1.767-.737-2.663a.188.188 0 0 1-.003-.023s-.03.005-.028.012c-.04.288-.135.554-.221.822-.053.17-.096.363-.332.383l.003.001ZM119.21 10.876c-.246-3.62-.044-7.244-.11-10.867h3.881c-.958 2.784-1.912 5.568-2.873 8.349-.291.842-.6 1.678-.9 2.516l.002.002ZM132.345 5.492c-.343.218-.415.093-.411-.274.015-1.736.007-3.473.007-5.21h8.758c.033.262-.242.07-.297.204-2.064.627-3.978 1.548-5.681 2.887-.891.7-1.647 1.533-2.376 2.392v.001ZM98.888 16.566a63.051 63.051 0 0 1-1.589-4.692c-.19-.506-.2-1.03-.2-1.563.01-3.135.002-6.27.007-9.406 0-.309-.05-.637.195-.898h1.392c.195.196.195.45.195.699-.007 4.806.025 9.612-.019 14.418-.001.268.032.526.095.786.055.223.123.457-.076.654v.002Z"/><path fill="#fff" d="M98.888 16.566c-.432-2.743-.125-5.504-.181-8.256-.056-2.766-.013-5.534-.013-8.301h.896v15.866c0 1.203-.096 2.416.29 3.59-.41-.94-.712-1.917-.994-2.9h.002ZM97.3.01v10.298c0 .522-.145 1.045-.002 1.567a47.957 47.957 0 0 1-1.393-4.087c-.258-.647-.228-1.313-.208-1.997.048-1.66.013-3.32.018-4.98 0-.28-.03-.572.191-.801h1.395Z"/><path fill="#fff" d="M95.908.01c0 1.925.017 3.852-.008 5.778-.008.667-.2 1.333.007 2-.463-1.325-.93-2.65-1.388-3.977-.437-1.265-.865-2.535-1.298-3.801h2.687Z"/><path fill="#A791BF" d="m140.404.212.297-.203h.399c-.201.175-.443.206-.696.203Z"/><path fill="#fff" d="M164.872 28.033c0 1.947.002 3.894.003 5.84-.305 1.383-.728 2.716-1.462 3.942-1.42 2.376-3.475 3.987-6.01 4.996-3.38 1.343-6.906 1.65-10.503 1.358-1.586-.128-3.164-.316-4.71-.716-.518-.218-1.082-.244-1.62-.386-.103.018-.204.025-.284-.063-.156-.211-.181-.456-.181-.709-.007-3.345-.164-6.69-.103-10.037.002-.131-.018-.27.027-.394.059-.168.108-.373.37-.266 2.756 1.076 5.496 2.203 8.529 2.228.811.007 1.619.028 2.413-.157.718-.166 1.313-.529 1.487-1.296.176-.77-.138-1.396-.737-1.882-.599-.488-1.293-.804-2.014-1.058-2.138-.754-4.357-1.247-6.492-2.016-1.151-.414-2.315-.794-3.39-1.388a.859.859 0 0 1-.188-.554c0-.083-.003-.166-.003-.25.005-6.97-.17-13.939-.1-20.908.003-.26-.056-.541.193-.738 1.029-.655 2.165-1.061 3.328-1.39 3.638-1.031 7.271-.851 10.909.027 3.177.768 6.164 2.03 9.097 3.442.389.186.405.366.226.72a894.893 894.893 0 0 0-4.3 8.593c-.207.422-.373.46-.763.231a29.522 29.522 0 0 0-7.554-3.132c-1.442-.371-2.912-.473-4.384-.183-1.544.305-2.236 1.628-1.523 2.879.256.448.666.73 1.103.979 1.285.727 2.712 1.06 4.107 1.48 2.523.761 5.053 1.5 7.449 2.623 2.188 1.026 4.188 2.302 5.549 4.379a9.625 9.625 0 0 1 1.363 3.185c.049.21.112.415.168.623v-.002ZM60.477 38.358c-.103 0-.205.003-.308.005-.333-.075-.38-.34-.381-.614-.005-.663-.054-1.327.063-1.984a1.48 1.48 0 0 0 .023-.296c-.052-1.674.121-3.342.114-5.016-.011-2.93.203-5.856.224-8.789.01-1.404.03-2.814.065-4.22.007-.281-.018-.57.196-.799l8.97-.018c.172.205.055.41-.004.609-.34 1.142-.79 2.247-1.173 3.373-.035.122-.08.238-.12.358a11.17 11.17 0 0 0-.373 1.125c-.337.929-.683 1.854-.977 2.798-.494 1.456-1.055 2.89-1.514 4.36A317.327 317.327 0 0 0 63.28 35c-.35.775-.468 1.644-.93 2.378-.032.058-.016-.024-.03.038-.173.824-.733.982-1.462.865a.609.609 0 0 0-.381.078v-.001ZM126.16 7.064l.007 12.793v17.63c0 .315-.02.633.21.894-.327 1.163-.853 2.253-1.265 3.385-.197.544-.423 1.078-.637 1.616-.076.191-.163.351-.417.346-1.62-.028-3.24.05-4.859-.043.128-.207.339-.167.53-.172.377-.01.752 0 1.129-.005.063-.001.127-.005.191-.013a9.654 9.654 0 0 1 2.078-.131c.407.018.583-.148.554-.555-.014-.214 0-.43 0-.647 0-8.54.002-17.081-.004-25.622 0-.527.126-1.055 0-1.582.468-1.533.918-3.07 1.409-4.595.354-1.1.637-2.225 1.074-3.297v-.002ZM27.328 21.135c-.254-.024-.352-.223-.459-.411-2.123-3.716-4.256-7.428-6.361-11.155-.314-.555-.67-.813-1.331-.8-2.14.037-4.28.016-6.42.012-.64 0-.64-.006-.643-.66 0-.366.01-.73-.003-1.097-.01-.25.08-.368.337-.37.23-.001.462-.053.692-.048 2.353.04 4.707.109 7.06-.006.657-.032 1.106.181 1.452.797 2.047 3.644 4.137 7.266 6.197 10.904.25.44.558.649 1.069.645 2.09-.015 4.18-.008 6.27-.008.955-.105 1.913-.027 2.869-.04 1.01.137 1.017.137 1.006 1.213-.004.353.093.732-.183 1.042-.111.042-.229.028-.343.028H27.716c-.13 0-.266.03-.387-.046h-.001ZM73.904 4.077c.126.471.106.95.106 1.431 0 10.451 0 20.902.003 31.354 0 .247-.11.545.196.717-.211 1.075-.607 2.097-.904 3.147-.25.877-.525 1.745-.786 2.62-.038.127-.056.262-.21.309-.183.103-.31.04-.402-.133-.123-.303-.083-.623-.083-.936-.002-10.32 0-20.642-.005-30.965 0-.358.08-.737-.191-1.049.627-1.828 1.245-3.66 1.888-5.483.119-.34.155-.714.388-1.01v-.002ZM108.241 12.838c.475-1.691.935-3.385 1.428-5.07.222-.76.365-1.546.677-2.28.283-.15.193-.5.432-.792v29.536c-.214-.143-.181-.394-.389-.44-.484-1.199-.976-2.392-1.449-3.595-.242-.616-.541-1.212-.704-1.858-.036-.124-.109-.223-.249-.171-.4.15-.448-.133-.503-.401-.036-.18-.025-.365-.025-.546V13.824c0-.264-.033-.542.085-.785.073-.148.141-.514.4-.082.169.285.233.017.294-.121l.003.002Z"/><path fill="#fff" d="M140.098 3.581c0 .28.004.56.004.839 0 4.135-.077 8.273.025 12.405.076 3.07.031 6.137.069 9.206a10.579 10.579 0 0 1-2.789-1.588c-.288-.629-.39-1.293-.39-1.979 0-4.052.005-8.104-.001-12.156-.002-1.228-.148-2.452-.102-3.681.012-.305.044-.595.191-.864a10.141 10.141 0 0 1 2.993-2.18V3.58Z"/><path fill="#fff" d="M137.107 5.761c-.04 2.255.138 4.505.118 6.76-.03 3.352.006 6.705-.02 10.057-.005.639.329 1.223.206 1.864-1.753-1.143-3.083-2.684-3.631-4.691-1.374-5.038-.647-9.68 2.96-13.663.11-.122.246-.218.369-.328l-.002.001ZM71.628 10.571c.206-.126.319-.023.358.17.034.16.032.33.032.494v32.322c-.515.198-1.044.085-1.567.073-.193-.005-.25-.198-.284-.364-.055-.263-.037-.53-.037-.794 0-8.6-.003-17.2.005-25.8 0-.577-.113-1.153-.013-1.73a60.626 60.626 0 0 1 1.506-4.37ZM140.401 31.598c-.213.038-.229.174-.226.366.018 1.145.043 2.29.023 3.433-.043 2.536.199 5.069.09 7.605-1.114-.27-2.221-.559-3.274-1.022-.186-.154-.418-.19-.639-.258-.641-.196-.709-.31-.742-.988-.141-2.801-.088-5.603-.098-8.406-.002-.524-.111-1.06.183-1.55.005-.033 0-.07.015-.098.207-.41.27-1.03.644-1.183.367-.15.763.35 1.147.564.855.476 1.721.927 2.608 1.34.104.048.221.075.272.197h-.003Z"/><path fill="#fff" d="M70.122 14.941c.158.511.21 1.03.21 1.566-.008 8.782-.004 17.564-.004 26.346 0 .468.232.703.697.704h.994c.073.105.181.1.29.097-.142.13-.316.076-.476.076-3.722.004-7.444.004-11.164 0-.16 0-.334.057-.475-.075.108-.124.254-.141.405-.145 1.433-.02 2.867.054 4.293-.148.148-.021.296.014.444.03a10.984 10.984 0 0 1 1.813 0c.1-.006.197-.028.295-.033.79-.038.793-.038.793-.812 0-7.083.002-14.164 0-21.247 0-.231.027-.467-.124-.67.407-1.195.817-2.39 1.22-3.585.047-.138.072-.285.106-.426.228-.56.454-1.122.681-1.682l.002.004ZM105.06 2.698c.374 1.186.739 2.373 1.005 3.59-.16.06-.15.196-.148.33.093 8.617.016 17.235.041 25.853 0 .212-.059.435.102.621-.281.849-.593 1.686-.99 2.49-.222.386-.342.812-.49 1.228a.065.065 0 0 1-.009.068c-.153.07-.264.038-.288-.14-.016-.131-.011-.264-.011-.397 0-11.631 0-23.262.011-34.893 0-.153-.23-.583.291-.443.05.132-.022.291.096.408.173.414.136.895.392 1.285h-.002ZM99.786 43.651c.691 0 1.383.003 2.073.004-.172.147-.381.086-.572.086-3.799 0-7.595-.011-11.394.002-.456 0-.654-.167-.755-.59-.222-.933-.62-1.818-.803-2.764-.389-1.133-.395-2.306-.395-3.486.008-9.864.004-19.729.004-29.592 0-.315-.02-.633.034-.946.038-.226.066-.466.327-.579.167.173.179.428.33.604.25.696.506 1.388.752 2.085.093.265.164.536.246.806-.065.41.005.82.005 1.23-.007 10.667-.005 21.335-.005 32.004 0 .15.001.297.005.447.006.265.142.388.403.398.314.012.631-.023.941.038.809-.001 1.61.183 2.424.085.435-.02.868.085 1.303-.002.53-.021 1.06.092 1.59 0 .565-.034 1.131.1 1.696 0 .59.102 1.19.13 1.788.174l.003-.004ZM18.767 26.12c-.17-.683-.042-1.379-.073-2.068-.009-.163.09-.238.249-.238l.249-.002h18.49c.1 0 .197.01.297.017.496.08.728.383.697.91-.016.295-.001.591-.02.886-.011.196-.016.4-.204.529-1.476.032-2.95.012-4.426.012-4.907.003-9.814.001-14.721 0-.18 0-.366.043-.538-.044v-.001Z"/><path fill="#fff" d="M106.058 33.094c-.103-.027-.332.27-.295-.115.003-.033 0-.067 0-.1V5.999c.156.058.147.268.302.288.355 1.215.712 2.428 1.066 3.644.272.936.539 1.873.805 2.811.056.202.099.4.307.097-.012.153.078.364-.164.402-.291.047-.162-.267-.286-.374-.164.143-.136.333-.136.513 0 4.763-.002 9.527.003 14.29 0 .216-.139.617.385.38.21-.095.195.146.196.292-.269-.244-.282.032-.34.177-.516 1.3-1.028 2.6-1.542 3.899-.092.228-.2.45-.299.676h-.002ZM88.64 6.385c-.204-.093-.227-.311-.34-.5-.146.297-.156.595-.156.901.002 10.728.005 21.453-.007 32.18 0 .491.23.934.201 1.42a56.54 56.54 0 0 1-1.393-4.488c.002-.994.005-1.987.005-2.983V3.23c0-.365-.001-.73.213-1.05l-.005.01c.174.429.25.893.481 1.303.385.947.704 1.915 1.001 2.892ZM53.302 16.748c.52-.233 1.064-.1 1.597-.108.269.314.21.69.16 1.047a8.166 8.166 0 0 0-.064 1.24c.053 2.604-.08 5.205-.124 7.808-.06 3.345-.304 6.686-.293 10.036.002.528.04 1.099-.277 1.586-.566.055-1.076-.058-1.479-.49.008-1.508-.083-3.016.065-4.522.043-.448.021-.895.025-1.343.018-3.084.081-6.166.214-9.246.086-2.004.156-4.006.174-6.011l.002.003ZM60.473 16.642c0 1.293.065 2.591-.017 3.88-.106 1.69.005 3.383-.1 5.065-.145 2.315-.139 4.63-.2 6.945-.047 1.75-.136 3.501-.183 5.252-.005.22-.014.434.196.577h-.498c-.142-.063-.294-.033-.441-.036-.545-.009-.641-.072-.636-.63.013-1.39-.07-2.78.068-4.173.085-.856-.022-1.726.03-2.585.148-2.461.166-4.926.282-7.387.012-.248.017-.498.008-.745-.058-1.841.083-3.677.103-5.516.004-.234.02-.466.194-.65h1.194v.003Z"/><path fill="#fff" d="M54.3 38.36c.142-1.835.037-3.675.117-5.51.075-1.733.111-3.47.21-5.198.08-1.425-.017-2.85.084-4.267.124-1.738.04-3.477.106-5.212.02-.508.081-1.019.083-1.531h1.195c.16.17.188.38.193.6.035 1.626-.058 3.245-.176 4.866-.033.465-.02.93-.018 1.393.003 3.498-.135 6.993-.224 10.488-.032 1.208-.052 2.418-.077 3.628-.005.263.023.538-.194.747h-1.293l-.005-.003ZM57.88 38.361h-1.29c-.203-.193-.192-.45-.193-.697-.017-2.222.07-4.44.187-6.657.012-.215.012-.43.008-.647-.063-3.284.266-6.557.231-9.842-.011-1.053.052-2.119.072-3.179.005-.25.006-.5.194-.7h1.096c.174.184.189.416.192.65.033 2.488-.06 4.976-.14 7.46-.063 1.986-.119 3.973-.169 5.962-.054 2.187-.152 4.372-.189 6.559-.007.362.055.725.002 1.088v.003ZM53.302 16.748c.29.07.209.31.199.488-.095 1.799-.068 3.6-.18 5.398-.105 1.651-.086 3.309-.134 4.961-.053 1.854.004 3.711-.104 5.559-.078 1.343-.03 2.679-.073 4.019-.009.247.02.502-.186.695-.551-.448-.51-1.075-.513-1.69-.115-.204-.312-.13-.483-.149-.19-.021-.394.065-.57-.073-.224-.74-.2-1.463.158-2.16.588-.033.882-.348.882-.944 0-2.033.001-4.069-.004-6.102 0-.19.072-.401-.104-.561-.243-.085-.525.075-.75-.12-.198-.586-.127-1.178-.044-1.769.043-.306.224-.468.554-.428.088.01.205.045.255-.084.162-.863.204-1.725-.014-2.585-.18-.065-.397.063-.553-.115-.217-.667-.06-1.32.082-1.972.056-.123.197-.105.289-.17.292-.154.312-.42.325-.713.028-.681.267-1.237.968-1.483v-.002Z"/><path fill="#fff" d="M57.88 38.361c-.187-.131-.192-.321-.197-.528-.055-1.972.096-3.94.134-5.91.02-1.056.048-2.116.065-3.173.04-2.664.226-5.322.239-7.99.007-1.37.017-2.745.065-4.118h1.094c.008 2.27-.077 4.54-.131 6.808-.039 1.572.1 3.162-.098 4.714-.226 1.774-.047 3.543-.188 5.306-.113 1.41-.02 2.816-.088 4.222-.021.446.098.662.573.587.113-.018.234-.008.325.083H57.881ZM135.715 30.78c-.179.431.012.859.01 1.288-.005 1.673.027 3.344-.011 5.016-.03 1.341.167 2.673.104 4.01-.018.389.254.46.518.553.241.085.538.045.676.335-1.531-.448-2.973-1.107-4.375-1.857-1.112-.596-1.09-.611-.539-1.771 1.094-2.303 2.175-4.615 3.265-6.92.107-.223.234-.436.352-.652v-.002ZM65.35 43.556c-1.716.139-3.436.09-5.154.102l-.025-.1c.2-.193.451-.185.7-.186.646-.007 1.294-.014 1.94 0 .395.008.564-.123.564-.543-.008-2.473-.007-4.944-.002-7.417 0-.2-.03-.361-.244-.43.64-1.937 1.292-3.87 2.022-5.776.274-.103.302.118.354.283.06.191.041.394.041.592v12.627c0 .294.038.604-.196.847v.001ZM57.088 16.642c.043 2.616-.068 5.23-.133 7.843a702.92 702.92 0 0 1-.184 6.49c-.081 2.462-.187 4.923-.18 7.386h-.997c0-.812-.018-1.624.003-2.436.077-2.926.176-5.85.228-8.777.023-1.372.018-2.745.068-4.116.078-2.13.257-4.257.2-6.39h.995ZM80.28 27.123h2.389c.237.243.19.554.192.847.005 2.009.007 4.016 0 6.025 0 .362.063.725.007 1.088h-2.784c.002-1.658.002-3.314.002-4.971 0-.764-.004-1.526.001-2.29.002-.248-.008-.503.193-.699Z"/><path fill="#fff" d="M63.13 34.983c.177-.024.192-.207.295-.313.197.105.13.288.13.436.006 2.653-.004 5.304.013 7.956.003.407-.135.51-.517.501-.96-.021-1.92-.006-2.88-.006.342-1.318.87-2.572 1.29-3.863.143-.44.282-.884.423-1.325.138-.36.194-.748.384-1.091l.861-2.295ZM80.28 27.123v7.334c0 .233.022.466-.199.626h-.402c-.323-.195-.677-.076-1.016-.09-.274-.01-.38-.103-.38-.38.007-2.367.007-4.735 0-7.102 0-.305.111-.411.409-.401.528.017 1.057.01 1.587.012v.001ZM82.868 35.083c-.22-.16-.2-.393-.2-.626.002-2.445.002-4.89.002-7.334h1.891c0 2.381.01 4.763-.008 7.144-.004.476.021.827.632.733.052-.009.113.054.171.083h-2.488ZM9.596 23.94c.895 0 1.792.013 2.686-.007.357-.008.527.09.498.473-.024.346-.006.697-.006 1.045 0 .388-.194.589-.578.589-1.808.003-3.614-.002-5.422.005-.277 0-.385-.1-.377-.378.014-.448.019-.897 0-1.345-.013-.317.127-.392.415-.389.928.012 1.858.005 2.786.005l-.002.002ZM3.34 8.771c-.76 0-1.522-.013-2.282.007-.327.008-.447-.105-.422-.428.04-.525-.21-1.193.095-1.542.319-.365 1-.108 1.519-.118 1.09-.024 2.183.01 3.274-.017.403-.01.523.126.494.51a9.84 9.84 0 0 0-.001 1.192c.015.302-.092.408-.397.401-.76-.016-1.52-.005-2.283-.005h.004ZM44.33 32.661a11.07 11.07 0 0 1-1.789 0c-.335-.047-.352-.31-.362-.557-.022-.495-.048-.994.01-1.485.098-.84.09-1.674.007-2.516-.033-.338-.188-.79.345-.952a10.344 10.344 0 0 1 1.788 0c-.003.017 0 .045-.008.047-.708.254-.58.857-.59 1.404-.021 1.142.052 2.283-.046 3.423-.019.213.028.346.26.395.151.031.344.026.386.243v-.002Z"/><path fill="#fff" d="M44.33 32.661c-.255-.178-.642.097-.83-.181-.177-.263.06-.573.057-.869-.013-1.142-.005-2.283-.005-3.425 0-.576.259-.922.777-1.038.702-.05 1.406-.055 2.108 0 .017.058-.001.105-.054.136-.123.078-.261.073-.399.078-.168.045-.337-.003-.505.01-.418.004-.562.217-.55.63.04 1.338-.014 2.675-.099 4.012-.015.228.019.47-.184.644l-.315.003ZM38.387 32.596a.676.676 0 0 1-.096-.38v-4.73c0-.099.003-.199.086-.274.31-.078.616-.076.925 0 .136.145.156.328.154.511-.016 1.39.095 2.781-.1 4.166-.036.246-.056.496-.238.692-.243.101-.487.083-.732.015h.001Z"/><path fill="#fff" d="m39.27 27.22-.893-.005c.3-.197.634-.085.951-.09.604-.012 1.21.015 1.815.026-.196 1.615-.213 3.236-.203 4.858.002.291.253.414.302.654-.881.01-1.763.02-2.644.028-.083 0-.163-.016-.214-.093l.685-.005c.714-.146.706-.66.732-1.253.043-.99.068-1.979.087-2.97.01-.521 0-.987-.62-1.149l.002-.001ZM42.54 27.15c-.35.349-.192.785-.148 1.171a9.822 9.822 0 0 1 0 2.072c-.065.657-.024 1.325-.032 1.987 0 .136.098.201.18.28a4.04 4.04 0 0 1-1.078-.004c-.125-.11-.145-.256-.133-.407.091-1.22.02-2.44.043-3.662.007-.348.072-.689.116-1.032.035-.262.168-.425.455-.409.2-.04.399-.05.6 0l-.002.003ZM38.082 18.95l-2.89-.008c.076-.028.15-.08.227-.08 1.59.005 3.18.015 4.77.025.937.024 1.032.135.904 1.077-.027.196-.037.391-.048.588-.035.6-.053.617-.66.645-.398.009-.796.025-1.193.027-3.763.001-7.527.003-11.29 0-.193 0-.4.065-.573-.083l11.544-.005c.025-.022.055-.039.079-.062.174-.168.557-.008.605-.331.07-.454.138-.945-.033-1.366-.123-.303-.54-.323-.858-.378-.191-.034-.393.04-.583-.045l-.001-.003ZM18.767 26.12l19.708-.007c.288-.238.621-.181.95-.153.865-.053.853-.053.872-.912.008-.408-.07-.812-.027-1.22h.896c.313.065.352.305.367.564.033.596-.051 1.187-.09 1.78-.197.01-.395.028-.594.028-7.153.001-14.305.003-21.458 0-.208 0-.432.075-.623-.079h-.001Z"/><path fill="#fff" d="M41.943 27.148c-.508.316-.325.858-.36 1.288-.071.857-.033 1.726-.017 2.59.01.549-.033 1.09-.102 1.632l-.216.003c-.417-.033-.487-.273-.493-.66-.025-1.47.081-2.934.106-4.402.003-.232.07-.378.286-.45a2.22 2.22 0 0 1 .798 0l-.002-.001ZM44.646 32.658c-.013-1.551.153-3.097.106-4.65-.024-.83-.146-.803.79-.789.125.134.128.297.12.465-.076 1.421-.018 2.844-.031 4.265 0 .178-.078.421.217.478.284-.01.568-.03.85.013.258-.01.515-.045.766.045a.365.365 0 0 1 .132.108c-.192.191-.435.09-.65.092-.766.003-1.533-.017-2.3-.029v.002ZM23.347 36.093c.176-.188.406-.107.612-.107 4.64-.005 9.28-.005 13.918-.005.064-.053.128-.128.206-.126.586.007.616-.368.616-.82 0-.415-.13-.86.173-1.235h1.096c.358.684.187 1.373.008 2.058-.038.149-.178.17-.319.178-.194.01-.395-.048-.582.047-.944.007-1.885.02-2.828.02-4.3 0-8.599-.003-12.9-.007v-.003ZM41.361 33.798h1.494c.102.76.364 1.52 0 2.28h-1.494c-.041-.027-.09-.049-.118-.088-.299-.43-.224-1.793.12-2.192h-.002ZM43.75 18.948h2.09c.02.128-.07.195-.162.207-.45.058-.456.369-.465.722-.01.44.095.889-.08 1.318-.4.046-.8.041-1.2.002-.41.044-.554-.175-.556-.55-.001-.392-.021-.785.06-1.173.043-.211.098-.418.316-.526h-.004Z"/><path fill="#fff" d="M42.855 36.08c.1-.76-.216-1.52 0-2.28h1.392c.223.23.171.522.178.799.012.516-.081 1.051.319 1.482h-1.89v-.001ZM40.385 21.195c.421-.023.543-.265.481-.65-.051-.315.068-.617.1-.924.044-.443-.04-.76-.591-.684-.058.008-.123-.034-.185-.052.782-.045 1.564-.05 2.348.002-.133.595-.096 1.211-.201 1.81-.032.177-.012.368-.176.495-.591.046-1.182.044-1.773.001l-.003.002Z"/><path fill="#fff" d="M42.158 21.194c-.045-.63.164-1.247.101-1.877-.022-.218.113-.332.277-.428.41-.097.808.044 1.213.06-.24.612-.185 1.256-.202 1.894-.008.3.231.266.385.354-.59.042-1.183.045-1.774-.003ZM51.514 26.115c.224.038.463-.058.676.076-2.48.015-4.962.042-7.442-.021-.216-.188-.181-.448-.188-.691-.008-.363-.013-.726.007-1.088.013-.262.073-.495.377-.563h1.095c-.068.514-.046 1.029-.045 1.546.002.451.168.63.601.588.314-.045.628-.032.942 0 .297-.04.596-.039.893 0 .332-.04.662-.04.994 0 .335-.042.67-.039 1.006 0 .372-.022.754-.115 1.084.154v-.001Z"/><path fill="#fff" d="M44.944 23.828c-.17.135-.207.313-.202.523.012.605.006 1.213.006 1.819a1.53 1.53 0 0 1-.621.003c-.965-.018-1.068-.115-.922-1.102.062-.414-.056-.875.248-1.243h1.492-.002ZM41.361 33.798c-.143.76-.174 1.52 0 2.28h-2.287c.025-.02.048-.045.078-.06.21-.104.54.084.644-.129.13-.266.147-.599.166-.907.027-.394.007-.79.007-1.186h1.393v.002ZM45.133 21.193c-.19-.634-.05-1.283-.079-1.924-.008-.168.115-.214.266-.226.176-.015.369.055.52-.097h1.097l.027.077a.258.258 0 0 1-.108.111c-.497.12-.746.451-.746.994v.05c0 .507.261.774.782.802a4.433 4.433 0 0 1 1.04 0c.33-.04.658-.042.989 0 .33-.038.662-.042.993 0 .272-.037.544-.035.818 0 .34-.025.687-.098.981.156.16.025.33-.038.478.069-2.352.036-4.706.04-7.059-.01v-.002ZM45.343 33.798h1.095c.158.153.17.353.173.552.005.282.04.561.066.842.032.333.08.626.493.68.093.011.185.081.161.21-.662 0-1.326 0-1.988-.003-.163-.324-.163-1.97 0-2.28v-.001Z"/><path fill="#fff" d="M45.343 33.798c.071.76.143 1.519 0 2.28h-.599c-.445-.069-.538-.34-.505-.756.04-.506.01-1.017.01-1.526h1.096l-.002.002ZM51.514 26.115H50.42c-.344-.654-.194-1.34-.12-2.017.019-.168.168-.218.334-.223.194-.007.394.05.581-.047l.99-.04c-.787.163-.696.776-.691 1.345.003.328 0 .655 0 .982ZM43.453 23.83c.06.566-.064 1.12-.108 1.677-.037.468.1.69.594.616.058-.008.124.032.188.05-.366.047-.73.042-1.096 0-.838-.017-.892-.047-.863-.9.016-.483-.135-.999.187-1.445h1.094l.004.002Z"/><path fill="#fff" d="M42.357 23.83c-.014.478-.035.958-.04 1.437-.008.772-.003.771.714.906a9.066 9.066 0 0 1-1.59 0c-.213-.12-.218-.329-.162-.515.138-.45.05-.907.085-1.358a.53.53 0 0 0-.2-.47h1.193ZM51.317 35.981c.323.102.732-.21.994.199-.759-.172-1.53-.01-2.293-.095-.235-.148-.54.066-.767-.147-.157-.719-.255-1.436.074-2.138h.996c.197.195.174.45.18.694.007.28.009.557.004.837-.005.293.093.47.413.48.15.006.287.064.399.172v-.002ZM39.47 26.113h-.995c.037-.607-.068-1.216.081-1.822.13-.526-.425-.255-.578-.463h1.096c.656.11.692.14.68.859-.01.49.024.993-.283 1.426h-.002Z"/><path fill="#fff" d="M49.324 35.983c.231.037.485-.083.694.102-.894 0-1.792-.002-2.687-.004-.96.028-.807-.727-.884-1.294-.043-.323-.008-.658-.008-.987h.996c.266.364.216.792.208 1.196-.017.78-.034.78.737.83.33-.03.664-.086.948.157h-.004ZM51.215 23.826c-.011.012-.023.029-.036.032-.506.145-.759.502-.759 1.072v1.183h-.996c-.344-.653-.194-1.338-.121-2.016.018-.168.166-.22.334-.223.16-.003.328.042.483-.046h1.095v-.002Z"/><path fill="#fff" d="M50.12 23.828c-.712.033-.756.493-.703 1.054.038.407.008.82.008 1.231h-.994c-.345-.652-.22-1.341-.113-2.012.061-.393.49-.126.709-.273h1.096-.003ZM51.317 35.981c-.664.004-.997-.327-.997-.991V33.8h1.094c-.031.727-.154 1.451-.1 2.183l.003-.002ZM47.535 26.112h-.996c-.243-.26-.18-.584-.178-.89 0-.296.085-.586.096-.882.012-.311.171-.48.477-.51h1.096c-.399.432-.308.968-.32 1.484-.006.276.046.569-.177.8l.002-.002ZM39.47 26.113c-.039-.512.114-1.01.116-1.523 0-.413-.064-.694-.512-.762l1.196.001c.219.158.202.39.199.62-.005.362-.034.726.006 1.083.053.49-.15.655-.61.587-.128-.018-.263-.007-.394-.008l-.002.002ZM49.324 35.983h-.994c-.055-.063-.123-.126-.128-.208-.046-.672-.063-1.341.228-1.975h.896v2.183h-.002Z"/><path fill="#fff" d="M47.535 26.112c0-.509.03-1.02-.01-1.527-.034-.416.063-.687.506-.757h.996c-.586.047-.646.42-.604.905.038.456.008.92.008 1.378h-.896v.001ZM48.43 33.8c.068.732-.148 1.451-.1 2.183-.986.005-.966.007-.85-1.018.043-.381-.028-.777-.046-1.165h.996ZM38.874 33.798c0 .53-.032 1.06.01 1.586.036.484-.131.672-.61.6-.129-.02-.264-.003-.397-.003.103-.723.115-1.453.1-2.183h.897ZM46.934 23.83c-.526.329-.254.894-.38 1.341-.083.291-.015.625-.015.941-.697.01-.704.011-.694-.69.005-.316-.073-.624-.078-.931-.004-.232.051-.497.272-.663h.896l-.001.001ZM47.594 32.594a.769.769 0 0 0-.061-.008c-.158-.148-.188-.344-.19-.544a265.085 265.085 0 0 1 0-4.295c0-.148.019-.296.095-.43a.214.214 0 0 1 .158-.101c.103 1.448.022 2.897.04 4.347.005.343.051.692-.042 1.031ZM62.268 37.278c-.065.386-.173.757-.384 1.091l-1.406-.013c.203-.297.512-.185.773-.172.426.02.747-.038.79-.55.011-.149.071-.29.229-.357h-.002ZM48.228 18.945l2.788.02c.025.058.011.107-.04.143a.525.525 0 0 1-.236.08c-.279.047-.56.03-.838.009a3.376 3.376 0 0 1-.86 0c-.266.015-.533.06-.777-.095-.053-.044-.065-.095-.035-.157h-.002ZM140.571 43.067c.565.029 1.123.082 1.621.386-.552-.084-1.101-.168-1.621-.386ZM104.579 36.812c.037-.46.183-.877.49-1.228-.108.431-.249.85-.49 1.228Z"/><path fill="#fff" d="M48.228 18.945v.097c-.079.111-.198.136-.325.148-.333.03-.677.118-.966-.148 0-.032 0-.063-.002-.095h1.294v-.002ZM47.596 27.216l-.063.008c-.202.182-.443.17-.687.14-.154-.002-.307-.012-.408-.157v-.058c.388-.015.783-.136 1.158.067ZM51.016 19.038v-.073l.992-.02-.194.1c-.267.206-.533.233-.797-.008l-.001.002ZM102.783 41.373c.023-.266.033-.539.292-.707-.058.253-.117.503-.292.707ZM129.056 31.6c.028-.224.018-.463.255-.598-.061.21-.098.43-.255.597Z"/><path fill="#fff" d="M102.585 41.885c-.016-.206.024-.389.203-.519a.829.829 0 0 1-.203.52ZM91.031 43.554c-.415 0-.83-.008-1.243.004-.257.007-.365-.103-.349-.356.007-.117 0-.233 0-.348V10.33c0-.365.002-.727.2-1.054l1.904 5.4c.043.124.063.254.094.38-.177.052-.236-.146-.378-.186-.06.181-.029.362-.029.54-.001 9.049 0 18.097-.005 27.145 0 .341.074.706-.192.998h-.002Z"/><path fill="#fff" d="M91.031 43.554c.032-9.727-.063-19.452.053-29.18 0-.054.04-.127.161-.124.15.246.126.6.39.806.54 1.412 1.056 2.834 1.488 4.285-.113.031-.186-.043-.267-.103-.05.527-.037 1.053-.037 1.58v21.553c0 .468-.113.996.553 1.149.053.011.04.083.046.131-.797.02-1.593.02-2.385-.095l-.002-.002Z"/><path fill="#fff" d="M93.417 43.652c-.014-.012-.024-.029-.039-.032-.503-.135-.755-.482-.755-1.04 0-6.71-.005-13.418.005-20.128.002-1.225-.1-2.455.123-3.693.202.15.11.486.37.584l.1.313c.13.36.18.749.393 1.08.387.945.707 1.914 1 2.89-.298.034-.33-.252-.479-.422-.04.251-.025.482-.025.712v18.46c0 .467-.12 1 .555 1.144.051.012.041.083.045.132h-1.293Z"/><path fill="#fff" d="M94.712 43.651c-.014-.011-.025-.023-.038-.031-.213-.153-.548.071-.693-.16-.16-.255-.06-.583-.061-.877-.004-6.35-.002-12.701-.005-19.05 0-.315.023-.62.163-.935.31.29.179.792.536 1.03.38.947.717 1.909.996 2.89-.148.17-.098.38-.098.573-.012 5.172 0 10.344-.012 15.517 0 .448.042.789.588.819.108.006.224.075.216.226h-1.592v-.002Z"/><path fill="#fff" d="M96.303 43.652c-.088-.097-.206-.1-.322-.093-.794.043-.67-.085-.67-.68 0-5.157 0-10.313-.003-15.47 0-.268.037-.524.095-.784.033-.144.1-.146.208-.108l.1.315c.135.358.159.755.39 1.078l.904 2.465.284-.496c.19.186.131.408.048.602-.143.333-.14.678-.14 1.025 0 3.65.004 7.3-.004 10.95 0 .482-.045.95.632.986.091.005.181.085.171.21h-1.693Z"/><path fill="#fff" d="M97.995 43.65c-.088-.097-.206-.099-.322-.093-.787.036-.67-.054-.67-.726a6981.09 6981.09 0 0 1 0-10.233c0-.917-.076-1.842.286-2.721.437-1.541.965-3.054 1.504-4.562-.433 3.788-.108 7.59-.189 11.383-.045 2.109 0 4.218-.016 6.326-.004.408.106.576.53.54.218-.02.466-.084.67.086h-1.793ZM99.893 19.541c.283.384.473.799.388 1.293l-.388-1.293ZM87.64 3.494c-.326-.372-.397-.84-.482-1.303.26.398.355.856.482 1.303ZM100.284 20.83c-.047.429-.058.87-.395 1.202.094-.412.197-.823.395-1.203ZM96.1 27.91c-.357-.278-.33-.694-.39-1.078.211.33.296.705.39 1.078ZM93.614 20.736c-.302-.298-.354-.688-.393-1.08.21.331.293.709.393 1.08ZM123.678 14.956c.202.17.201.403.201.637 0 9.158-.002 18.316.005 27.474 0 .355-.082.523-.47.493-.808-.06-1.615.047-2.424.078-.199-.194-.194-.45-.194-.697-.005-6.011 0-12.02-.005-18.032 0-.26.123-.524 0-.785.468-1.528.931-3.057 1.408-4.583.353-1.133.727-2.26 1.09-3.39.223-.343.218-.762.379-1.127-.013-.025-.01-.048.008-.068h.002Z"/><path fill="#fff" d="m120.881 43.644-1.682.04c-.891-.037-1.781-.09-2.673-.104-.224-.003-.305-.058-.31-.263-.003-.116-.002-.233-.002-.348 0-6.558 0-13.117.004-19.673 0-.235-.092-.513.2-.666l.195.5c.071.16.059.349.174.492.545 1.556 1.091 3.113 1.635 4.67.158.45.321.898.485 1.36.211-.1.154-.335.29-.449.183.189.132.407.05.606-.134.333-.152.674-.152 1.025l.001 11.754c0 .77.005.751.774.786.345.015.772-.173 1.011.271v-.002Z"/><path fill="#fff" d="M120.881 43.644c-.48-.183-.979-.072-1.467-.077-.372-.004-.523-.087-.522-.5.015-4.21.017-8.422-.001-12.632-.002-.456.381-.783.307-1.235.478-1.71 1-3.403 1.593-5.076.315.088.195.351.196.54.007 3.254.005 6.508.005 9.761v9.213c-.036 0-.073.002-.111.004v.002ZM123.669 15.026c-.093.388-.015.83-.379 1.127.095-.386.156-.784.379-1.127ZM116.613 18.336c.015-.293.024-.587.291-.787a1.68 1.68 0 0 1-.291.787ZM116.787 23.62c-.201-.113-.175-.306-.175-.491a.853.853 0 0 1 .175.49ZM105.06 2.698c-.357-.36-.313-.84-.391-1.285.239.395.277.852.391 1.285ZM79.11 19.244c-.035.243-.05.493-.221.692.003-.253.016-.502.22-.692ZM80.97 13.869l-.18-.093c.01-.072 0-.183.111-.148.106.035.072.151.068.241ZM65.35 43.556c0-4.586.002-9.172-.006-13.757 0-.203.14-.485-.193-.591.427-1.488.996-2.927 1.508-4.385.011-.012.023-.024.036-.034.161-.11.068-.479.314-.429.254.05.228.368.277.586.055.243.052.494.052.744v17.02c0 .294.038.603-.194.848h-1.792l-.002-.002Z"/><path fill="#fff" d="M67.142 43.555v-6.37c0-2.14.01-4.28-.003-6.42-.012-2.11.058-4.223-.051-6.37-.278.11-.188.412-.429.427.306-.94.604-1.878.983-2.791.21-.341.284-.73.392-1.107-.005-.107-.02-.215.081-.291.173-.065.297-.034.314.175.011.148.007.297.007.447v21.55c0 .5-.25.75-.748.75h-.546Z"/><path fill="#fff" d="M68.033 20.926c-.026.406-.078.804-.391 1.107.098-.382.199-.761.391-1.107ZM38.082 18.95c.456.017.913-.057 1.371.061.236.062.329.162.32.401-.013.395-.03.793.006 1.184.041.447-.135.602-.56.54-.113-.016-.229-.005-.343-.006 0-.508-.022-1.017.008-1.524.023-.407-.068-.64-.53-.568a.292.292 0 0 1-.269-.09l-.003.003ZM51.016 19.038c.265.004.531.005.797.008.01.7-.166 1.388-.102 2.089-.331 0-.662 0-.994-.002-.29-.71-.325-1.41.1-2.087l.197-.008h.002ZM46.438 27.207c.132.004.265.01.398.013.184.184.179.417.159.652-.126 1.386-.046 2.777-.098 4.166-.008.203-.005.399-.16.554h-.896c-.156-.154-.194-.35-.174-.551.143-1.436.203-2.876.19-4.32 0-.187.04-.363.184-.501.132-.004.265-.01.397-.012Z"/><path fill="#fff" d="M46.04 27.22c.022 1.383 0 2.766-.106 4.145-.032.41-.126.812-.093 1.227-.367.063-.437-.057-.418-.445.051-1.051.018-2.106.02-3.16 0-.59-.029-1.183.1-1.766h.497v-.001ZM39.27 27.22c.148 0 .298.003.446-.006.249-.015.345.092.355.346.056 1.581-.09 3.159-.103 4.738-.002.21-.1.3-.302.295-.198-.003-.395-.002-.593-.003.317-1.781.165-3.58.2-5.372l-.003.002ZM46.736 32.592c-.038-1.793-.028-3.583.1-5.372l.697.004v5.361l-.797.005v.002ZM46.937 19.042c.332 0 .663.002.995.003.3.696.3 1.392 0 2.087h-1.095c-.353-.714-.157-1.401.098-2.087l.004-.003h-.002Z"/><path fill="#fff" d="M47.932 21.13v-2.087c.1 0 .199-.001.298-.003l.797.005c.146.704.201 1.403-.1 2.085h-.995Z"/><path fill="#fff" d="M48.928 21.132c.02-.696-.069-1.396.1-2.085h.894c.3.695.3 1.39 0 2.085h-.994ZM46.936 19.043c.04.699-.17 1.386-.098 2.087-1.068.007-.877.088-.897-.892v-.198c0-.668.332-1 .995-.997Z"/><path fill="#fff" d="M49.922 21.132v-2.085h.896c-.136.69-.096 1.39-.1 2.087h-.796v-.002Z"/></svg>